<mxfile host="app.diagrams.net" modified="2021-08-21T19:36:52.031Z" agent="5.0 (Windows NT 10.0; Win64; x64) AppleWebKit/537.36 (KHTML, like Gecko) Chrome/92.0.4515.159 Safari/537.36" etag="X9cPzrf0mGpyLqtmCssZ" version="14.9.8" type="github">
  <diagram id="kgpKYQtTHZ0yAKxKKP6v" name="Page-1">
    <mxGraphModel dx="1422" dy="794" grid="1" gridSize="10" guides="1" tooltips="1" connect="1" arrows="1" fold="1" page="1" pageScale="1" pageWidth="850" pageHeight="1100" math="0" shadow="0">
      <root>
        <mxCell id="0" />
        <mxCell id="1" parent="0" />
        <mxCell id="z6QFPeeWt0Y_q2ZHpMn_-1" value="Khách Hàng" style="shape=umlLifeline;perimeter=lifelinePerimeter;container=1;collapsible=0;recursiveResize=0;rounded=0;shadow=0;strokeWidth=1;" vertex="1" parent="1">
          <mxGeometry x="130" y="90" width="100" height="400" as="geometry" />
        </mxCell>
        <mxCell id="z6QFPeeWt0Y_q2ZHpMn_-2" value="" style="points=[];perimeter=orthogonalPerimeter;rounded=0;shadow=0;strokeWidth=1;" vertex="1" parent="z6QFPeeWt0Y_q2ZHpMn_-1">
          <mxGeometry x="45" y="80" width="10" height="40" as="geometry" />
        </mxCell>
        <mxCell id="z6QFPeeWt0Y_q2ZHpMn_-3" value="Thiết bị/Giao diện" style="shape=umlLifeline;perimeter=lifelinePerimeter;container=1;collapsible=0;recursiveResize=0;rounded=0;shadow=0;strokeWidth=1;" vertex="1" parent="1">
          <mxGeometry x="310" y="90" width="100" height="400" as="geometry" />
        </mxCell>
        <mxCell id="z6QFPeeWt0Y_q2ZHpMn_-4" value="" style="points=[];perimeter=orthogonalPerimeter;rounded=0;shadow=0;strokeWidth=1;" vertex="1" parent="z6QFPeeWt0Y_q2ZHpMn_-3">
          <mxGeometry x="45" y="120" width="10" height="40" as="geometry" />
        </mxCell>
        <mxCell id="z6QFPeeWt0Y_q2ZHpMn_-5" value="Nhấn vào mục khuyến mãi" style="verticalAlign=bottom;endArrow=block;shadow=0;strokeWidth=1;" edge="1" parent="1" source="z6QFPeeWt0Y_q2ZHpMn_-2">
          <mxGeometry x="-0.0286" y="1" relative="1" as="geometry">
            <mxPoint x="285" y="170" as="sourcePoint" />
            <mxPoint x="360" y="209" as="targetPoint" />
            <Array as="points">
              <mxPoint x="290" y="210" />
            </Array>
            <mxPoint as="offset" />
          </mxGeometry>
        </mxCell>
        <mxCell id="z6QFPeeWt0Y_q2ZHpMn_-6" value="Hệ Thống" style="shape=umlLifeline;perimeter=lifelinePerimeter;container=1;collapsible=0;recursiveResize=0;rounded=0;shadow=0;strokeWidth=1;" vertex="1" parent="1">
          <mxGeometry x="480" y="90" width="100" height="400" as="geometry" />
        </mxCell>
        <mxCell id="z6QFPeeWt0Y_q2ZHpMn_-7" value="" style="points=[];perimeter=orthogonalPerimeter;rounded=0;shadow=0;strokeWidth=1;" vertex="1" parent="z6QFPeeWt0Y_q2ZHpMn_-6">
          <mxGeometry x="45" y="160" width="10" height="40" as="geometry" />
        </mxCell>
        <mxCell id="z6QFPeeWt0Y_q2ZHpMn_-8" value="Yêu cầu hệ&amp;nbsp; thống" style="html=1;verticalAlign=bottom;endArrow=block;entryX=-0.1;entryY=0;entryDx=0;entryDy=0;entryPerimeter=0;" edge="1" parent="1" target="z6QFPeeWt0Y_q2ZHpMn_-7">
          <mxGeometry x="0.0059" width="80" relative="1" as="geometry">
            <mxPoint x="355" y="250" as="sourcePoint" />
            <mxPoint x="520" y="250" as="targetPoint" />
            <mxPoint as="offset" />
          </mxGeometry>
        </mxCell>
        <mxCell id="z6QFPeeWt0Y_q2ZHpMn_-9" value="Yêu cầu thành công" style="html=1;verticalAlign=bottom;endArrow=block;exitX=0.5;exitY=1;exitDx=0;exitDy=0;exitPerimeter=0;" edge="1" parent="1" source="z6QFPeeWt0Y_q2ZHpMn_-7">
          <mxGeometry x="0.0588" width="80" relative="1" as="geometry">
            <mxPoint x="445" y="290" as="sourcePoint" />
            <mxPoint x="360" y="290" as="targetPoint" />
            <mxPoint as="offset" />
          </mxGeometry>
        </mxCell>
        <mxCell id="z6QFPeeWt0Y_q2ZHpMn_-10" value="Hiển thị giao diện trang Khuyến Mãi" style="html=1;verticalAlign=bottom;endArrow=block;exitX=0.5;exitY=1;exitDx=0;exitDy=0;exitPerimeter=0;" edge="1" parent="1" source="z6QFPeeWt0Y_q2ZHpMn_-11">
          <mxGeometry width="80" relative="1" as="geometry">
            <mxPoint x="350" y="330" as="sourcePoint" />
            <mxPoint x="180" y="330" as="targetPoint" />
            <mxPoint as="offset" />
          </mxGeometry>
        </mxCell>
        <mxCell id="z6QFPeeWt0Y_q2ZHpMn_-11" value="" style="points=[];perimeter=orthogonalPerimeter;rounded=0;shadow=0;strokeWidth=1;" vertex="1" parent="1">
          <mxGeometry x="355" y="290" width="10" height="40" as="geometry" />
        </mxCell>
        <mxCell id="z6QFPeeWt0Y_q2ZHpMn_-12" value="" style="html=1;points=[];perimeter=orthogonalPerimeter;" vertex="1" parent="1">
          <mxGeometry x="525" y="370" width="10" height="40" as="geometry" />
        </mxCell>
        <mxCell id="z6QFPeeWt0Y_q2ZHpMn_-13" value="" style="edgeStyle=orthogonalEdgeStyle;html=1;align=left;spacingLeft=2;endArrow=block;rounded=0;entryX=1;entryY=0;" edge="1" parent="1" target="z6QFPeeWt0Y_q2ZHpMn_-12">
          <mxGeometry y="85" relative="1" as="geometry">
            <mxPoint x="535" y="290" as="sourcePoint" />
            <Array as="points">
              <mxPoint x="565" y="290" />
              <mxPoint x="565" y="370" />
            </Array>
            <mxPoint as="offset" />
          </mxGeometry>
        </mxCell>
        <mxCell id="z6QFPeeWt0Y_q2ZHpMn_-14" value="Yêu cầu thất bại" style="html=1;verticalAlign=bottom;endArrow=block;exitX=0.5;exitY=1;exitDx=0;exitDy=0;exitPerimeter=0;" edge="1" parent="1">
          <mxGeometry width="80" relative="1" as="geometry">
            <mxPoint x="535" y="410" as="sourcePoint" />
            <mxPoint x="365" y="410" as="targetPoint" />
            <mxPoint as="offset" />
          </mxGeometry>
        </mxCell>
        <mxCell id="z6QFPeeWt0Y_q2ZHpMn_-15" value="" style="points=[];perimeter=orthogonalPerimeter;rounded=0;shadow=0;strokeWidth=1;" vertex="1" parent="1">
          <mxGeometry x="355" y="410" width="10" height="40" as="geometry" />
        </mxCell>
        <mxCell id="z6QFPeeWt0Y_q2ZHpMn_-16" value="Hiển thị yêu cầu không thành công&lt;br&gt;và reload lại trang trước đó" style="html=1;verticalAlign=bottom;endArrow=block;exitX=0.5;exitY=1;exitDx=0;exitDy=0;exitPerimeter=0;" edge="1" parent="1" target="z6QFPeeWt0Y_q2ZHpMn_-1">
          <mxGeometry width="80" relative="1" as="geometry">
            <mxPoint x="355" y="449" as="sourcePoint" />
            <mxPoint x="185" y="449" as="targetPoint" />
            <mxPoint as="offset" />
          </mxGeometry>
        </mxCell>
        <mxCell id="z6QFPeeWt0Y_q2ZHpMn_-17" value="Xem trang Khuyến Mãi" style="text;align=center;fontStyle=1;verticalAlign=middle;spacingLeft=3;spacingRight=3;strokeColor=none;rotatable=0;points=[[0,0.5],[1,0.5]];portConstraint=eastwest;" vertex="1" parent="1">
          <mxGeometry x="320" y="60" width="80" height="26" as="geometry" />
        </mxCell>
      </root>
    </mxGraphModel>
  </diagram>
</mxfile>
